<svg width="24" height="24" viewBox="0 0 24 24" fill="none" xmlns="http://www.w3.org/2000/svg">
<g id="Receipt 03" opacity="0.5">
<path id="Vector" fill-rule="evenodd" clip-rule="evenodd" d="M3.2467 4.99708C3.2467 3.47741 4.47786 2.24625 5.99754 2.24625H13.1725C13.9019 2.24625 14.6018 2.53651 15.1174 3.05216L17.9466 5.88134C18.4623 6.39699 18.7525 7.0969 18.7525 7.82626V9.99916C18.7525 10.4134 18.4168 10.7492 18.0025 10.7492C17.5883 10.7492 17.2525 10.4134 17.2525 9.99916V8.74833H14.0009C13.0344 8.74833 12.2505 7.96436 12.2505 6.99791V3.74625H5.99754C5.30629 3.74625 4.7467 4.30583 4.7467 4.99708V19.0029C4.7467 19.6942 5.30629 20.2537 5.99754 20.2537H9.9992C10.4134 20.2537 10.7492 20.5895 10.7492 21.0037C10.7492 21.418 10.4134 21.7537 9.9992 21.7537H5.99754C4.47786 21.7537 3.2467 20.5226 3.2467 19.0029V4.99708ZM13.7505 3.88805V6.99791C13.7505 7.13593 13.8629 7.24833 14.0009 7.24833H17.1107C17.0524 7.1364 16.9769 7.03291 16.886 6.942L14.0568 4.11282C13.9659 4.02191 13.8624 3.94643 13.7505 3.88805ZM6.25003 8C6.25003 7.58578 6.58582 7.25 7.00003 7.25H10C10.4142 7.25 10.75 7.58578 10.75 8C10.75 8.41421 10.4142 8.75 10 8.75H7.00003C6.58582 8.75 6.25003 8.41421 6.25003 8ZM6.25003 11C6.25003 10.5858 6.58582 10.25 7.00003 10.25H12C12.4142 10.25 12.75 10.5858 12.75 11C12.75 11.4142 12.4142 11.75 12 11.75H7.00003C6.58582 11.75 6.25003 11.4142 6.25003 11ZM16.5019 13.7504C14.4301 13.7504 12.75 15.4305 12.75 17.5023C12.75 19.5741 14.4301 21.2542 16.5019 21.2542C18.5746 21.2542 20.2538 19.5742 20.2538 17.5023C20.2538 15.4304 18.5746 13.7504 16.5019 13.7504ZM11.25 17.5023C11.25 14.602 13.6017 12.2504 16.5019 12.2504C19.4033 12.2504 21.7538 14.6021 21.7538 17.5023C21.7538 20.4024 19.4033 22.7542 16.5019 22.7542C13.6017 22.7542 11.25 20.4025 11.25 17.5023ZM18.6899 16.1436C18.9828 16.4365 18.9828 16.9114 18.6899 17.2043L16.6171 19.2771C16.4763 19.4179 16.2855 19.4969 16.0864 19.4968C15.8874 19.4967 15.6966 19.4175 15.556 19.2767L14.3135 18.0322C14.0208 17.7391 14.0212 17.2642 14.3143 16.9715C14.6074 16.6789 15.0823 16.6793 15.375 16.9724L16.0872 17.6857L17.6293 16.1436C17.9222 15.8507 18.397 15.8507 18.6899 16.1436Z" fill="#1D2452"/>
</g>
</svg>
