<svg width="210" height="38" viewBox="0 0 210 38" fill="none" xmlns="http://www.w3.org/2000/svg">
<path d="M38.2946 32.0634V6.89391C41.7166 6.86127 45.1211 6.89391 48.5431 6.89391C54.1249 6.89391 57.0885 11.3217 57.0885 16.066C57.0885 20.7435 54.0294 24.9411 48.5415 24.9411H43.4355V32.0634H38.2946ZM48.5431 20.3453C50.7347 20.3453 52.1847 18.3297 52.1847 15.9175C52.1847 13.587 50.8127 11.6367 48.5431 11.604H43.3225V20.329H48.5431V20.3453ZM81.0871 31.3029V32.0634H75.5992L70.6651 23.7677H66.3757V32.0634H61.2347V6.89391H71.4848C76.9712 6.92655 79.9523 11.0573 79.9523 15.5209C79.9523 18.7263 78.4068 21.5204 75.6628 22.9239L81.0871 31.3045V31.3029ZM71.453 19.3399C73.6128 19.3399 75.0166 17.5708 74.9848 15.423C74.9848 13.3079 73.6447 11.604 71.4514 11.604H66.312V19.3399H71.453ZM100.086 11.653H90.5478V16.7613H99.4561V21.4698H90.5478V27.2211H100.355V32.114H85.375V6.94287H100.086V11.653ZM116.17 6.67848C121.01 6.71112 126.149 9.40401 127.238 15.6368H122.272C121.215 12.7938 119.055 11.5371 116.17 11.5371C111.912 11.5371 109.074 14.7767 109.074 19.5537C109.074 23.8672 111.849 27.4529 116.138 27.4529C119.118 27.4529 121.562 25.9824 122.382 22.9239H127.316C126.293 29.568 121.183 32.3115 116.17 32.3115C109.862 32.3115 103.887 27.8821 103.887 19.5537C103.903 11.1731 109.862 6.61157 116.17 6.67685V6.67848ZM142.674 32.4943C136.258 32.4943 130.471 27.998 130.471 19.5195C130.471 11.041 136.399 6.54465 142.785 6.54465C149.061 6.54465 154.99 11.0752 154.99 19.5195C154.99 27.1722 149.944 32.4943 142.675 32.4943H142.674ZM142.753 27.6014C146.49 27.6014 149.881 25.0064 149.881 19.5195C149.881 14.1663 146.522 11.5045 142.785 11.5045C139.016 11.5045 135.658 14.1973 135.658 19.5195C135.642 25.0227 138.906 27.6014 142.753 27.6014ZM179.571 31.3029V32.0634H174.084L169.149 23.7677H164.859V32.0634H159.718V6.89391H169.968C175.455 6.92655 178.436 11.0573 178.436 15.5209C178.436 18.7263 176.89 21.5204 174.146 22.9239L179.571 31.3045V31.3029ZM169.938 19.3399C172.098 19.3399 173.502 17.5708 173.472 15.423C173.472 13.3079 172.13 11.604 169.938 11.604H164.797V19.3399H169.938ZM194.565 32.4943C188.148 32.4943 182.362 27.998 182.362 19.5195C182.362 11.041 188.29 6.54465 194.677 6.54465C200.951 6.54465 206.88 11.0752 206.88 19.5195C206.864 27.1722 201.834 32.4943 194.565 32.4943ZM194.629 27.6014C198.366 27.6014 201.756 25.0064 201.756 19.5195C201.756 14.1663 198.398 11.5045 194.661 11.5045C190.892 11.5045 187.534 14.1973 187.534 19.5195C187.534 25.0227 190.781 27.6014 194.629 27.6014Z" fill="#1D2452"/>
<path d="M29.5299 27.6955C30.8221 25.4256 31.5629 22.8703 31.6897 20.2451C27.2223 19.8381 22.7343 20.7445 18.751 22.8582C14.7678 24.972 11.4543 28.2055 9.19839 32.1803C8.89439 32.7075 8.62222 33.2346 8.36597 33.7634C15.8371 37.9496 25.2102 35.2959 29.5299 27.6955Z" fill="url(#paint0_linear_1_657)"/>
<path d="M31.7059 19.3887C31.6741 13.8316 28.8888 8.42457 23.899 5.40854C21.5428 3.98445 18.8655 3.21416 16.1308 3.17352C13.396 3.13289 10.6981 3.8233 8.30264 5.17679C10.3076 9.75404 13.6503 13.5792 17.8683 16.123C22.04 18.6538 26.8751 19.7943 31.7059 19.3871V19.3887Z" fill="url(#paint1_linear_1_657)"/>
<path d="M7.66223 5.57311C5.44024 6.97029 3.59292 8.91333 2.28729 11.2265C-2.04671 18.8596 0.304124 28.6193 7.55081 33.2853C7.90097 32.7566 8.23839 32.2294 8.55831 31.6696C10.8237 27.6757 11.9417 23.1063 11.7831 18.4888C11.6246 13.8713 10.196 9.39381 7.66223 5.57311Z" fill="url(#paint2_linear_1_657)"/>
<defs>
<linearGradient id="paint0_linear_1_657" x1="0.114594" y1="19.4574" x2="31.7059" y2="19.4574" gradientUnits="userSpaceOnUse">
<stop stop-color="#4ED0FF"/>
<stop offset="1" stop-color="#4545F5"/>
</linearGradient>
<linearGradient id="paint1_linear_1_657" x1="0.114594" y1="19.4574" x2="31.7059" y2="19.4574" gradientUnits="userSpaceOnUse">
<stop stop-color="#4ED0FF"/>
<stop offset="1" stop-color="#4545F5"/>
</linearGradient>
<linearGradient id="paint2_linear_1_657" x1="0.114594" y1="19.4574" x2="31.7059" y2="19.4574" gradientUnits="userSpaceOnUse">
<stop stop-color="#4ED0FF"/>
<stop offset="1" stop-color="#4545F5"/>
</linearGradient>
</defs>
</svg>
