<svg width="24" height="24" viewBox="0 0 24 24" fill="none" xmlns="http://www.w3.org/2000/svg">
<g id="Group">
<path id="Path" fill-rule="evenodd" clip-rule="evenodd" d="M17.0021 21.0037H6.9979C6.46721 21.0039 5.9582 20.7931 5.58294 20.4179C5.20768 20.0426 4.99692 19.5336 4.99707 19.0029V12C4.99692 11.4693 5.20768 10.9603 5.58294 10.585C5.9582 10.2098 6.46721 9.99902 6.9979 9.99917H17.0021C17.5328 9.99902 18.0418 10.2098 18.417 10.585C18.7923 10.9603 19.003 11.4693 19.0029 12V19.0029C19.003 19.5336 18.7923 20.0426 18.417 20.4179C18.0418 20.7931 17.5328 21.0039 17.0021 21.0037V21.0037Z" stroke="#1D2452" stroke-width="1.5" stroke-linecap="round" stroke-linejoin="round"/>
<path id="Path_2" d="M12.0366 15.4648C12.0515 15.4796 12.0559 15.5019 12.0479 15.5213C12.0399 15.5407 12.0209 15.5533 12 15.5533C11.979 15.5533 11.9601 15.5407 11.952 15.5213C11.944 15.5019 11.9485 15.4796 11.9633 15.4648V15.4648C11.9835 15.4445 12.0163 15.4445 12.0366 15.4648" stroke="#1D2452" stroke-width="1.5" stroke-linecap="round" stroke-linejoin="round"/>
<path id="Path_3" d="M15.4384 17.0021V14.0008" stroke="#1D2452" stroke-width="1.5" stroke-linecap="round" stroke-linejoin="round"/>
<path id="Path_4" d="M7.99835 9.99917V6.99792V6.99792C7.99845 4.7879 9.79 2.99635 12 2.99625V2.99625C14.21 2.99635 16.0016 4.7879 16.0017 6.99792V6.99792V9.99917" stroke="#1D2452" stroke-width="1.5" stroke-linecap="round" stroke-linejoin="round"/>
<path id="Path_5" d="M8.59822 15.4648C8.61305 15.4796 8.61749 15.5019 8.60946 15.5213C8.60144 15.5407 8.58253 15.5533 8.56155 15.5533C8.54057 15.5533 8.52166 15.5407 8.51363 15.5213C8.50561 15.5019 8.51005 15.4796 8.52488 15.4648V15.4648C8.54513 15.4445 8.57792 15.4445 8.59817 15.4648" stroke="#1D2452" stroke-width="1.5" stroke-linecap="round" stroke-linejoin="round"/>
</g>
</svg>
