<svg width="24" height="24" viewBox="0 0 24 24" fill="none" xmlns="http://www.w3.org/2000/svg">
<g id="Dashboard" opacity="0.5">
<path id="Vector" fill-rule="evenodd" clip-rule="evenodd" d="M11.5698 2.38558C11.8281 2.20481 12.1718 2.20481 12.43 2.38558L22.43 9.38558C22.7694 9.62311 22.8519 10.0908 22.6144 10.4301C22.3768 10.7694 21.9092 10.852 21.5698 10.6144L20.7499 10.0405V21.0001C20.7499 21.4143 20.4142 21.7501 19.9999 21.7501H3.99994C3.58573 21.7501 3.24994 21.4143 3.24994 21.0001V10.0405L2.43004 10.6144C2.0907 10.852 1.62305 10.7694 1.38552 10.4301C1.14798 10.0908 1.23051 9.62311 1.56985 9.38558L11.5698 2.38558ZM4.74994 8.99049V20.2501H8.24994V15C8.24994 13.4808 9.48073 12.25 10.9999 12.25H12.9999C14.5192 12.25 15.7499 13.4808 15.7499 15V20.2501H19.2499V8.99049L11.9999 3.91549L4.74994 8.99049ZM14.2499 20.2501V15C14.2499 14.3092 13.6907 13.75 12.9999 13.75H10.9999C10.3092 13.75 9.74994 14.3092 9.74994 15V20.2501H14.2499Z" fill="#1D2452"/>
</g>
</svg>
