<svg width="24" height="24" viewBox="0 0 24 24" fill="none" xmlns="http://www.w3.org/2000/svg">
<g id="Revision-History" opacity="0.5">
<g id="Vector">
<path d="M4.75 5C4.75 4.30964 5.30964 3.75 6 3.75H19C19.6904 3.75 20.25 4.30964 20.25 5V19C20.25 19.6904 19.6904 20.25 19 20.25H14C13.5858 20.25 13.25 20.5858 13.25 21C13.25 21.4142 13.5858 21.75 14 21.75H19C20.5188 21.75 21.75 20.5188 21.75 19V5C21.75 3.48122 20.5188 2.25 19 2.25H6C4.48122 2.25 3.25 3.48122 3.25 5V9C3.25 9.41421 3.58579 9.75 4 9.75C4.41421 9.75 4.75 9.41421 4.75 9V5Z" fill="#1D2452"/>
<path d="M6.74756 15.4963C6.74756 15.0821 6.41177 14.7463 5.99756 14.7463C5.58334 14.7463 5.24756 15.0821 5.24756 15.4963V16.9976C5.24756 17.3204 5.45416 17.6071 5.76045 17.7091L7.20034 18.1889C7.59331 18.3199 8.01803 18.1075 8.14898 17.7145C8.27993 17.3216 8.06752 16.8968 7.67455 16.7659L6.74756 16.457V15.4963Z" fill="#1D2452"/>
<path fill-rule="evenodd" clip-rule="evenodd" d="M1.25 16.5C1.25 13.6005 3.6005 11.25 6.5 11.25C9.3995 11.25 11.75 13.6005 11.75 16.5C11.75 19.3995 9.3995 21.75 6.5 21.75C3.6005 21.75 1.25 19.3995 1.25 16.5ZM6.5 12.75C4.42893 12.75 2.75 14.4289 2.75 16.5C2.75 18.5711 4.42893 20.25 6.5 20.25C8.57107 20.25 10.25 18.5711 10.25 16.5C10.25 14.4289 8.57107 12.75 6.5 12.75Z" fill="#1D2452"/>
<path d="M8 7.25C7.58579 7.25 7.25 7.58579 7.25 8C7.25 8.41421 7.58579 8.75 8 8.75H17C17.4142 8.75 17.75 8.41421 17.75 8C17.75 7.58579 17.4142 7.25 17 7.25H8Z" fill="#1D2452"/>
<path d="M13.25 12C13.25 11.5858 13.5858 11.25 14 11.25H17C17.4142 11.25 17.75 11.5858 17.75 12C17.75 12.4142 17.4142 12.75 17 12.75H14C13.5858 12.75 13.25 12.4142 13.25 12Z" fill="#1D2452"/>
<path d="M15 15.25C14.5858 15.25 14.25 15.5858 14.25 16C14.25 16.4142 14.5858 16.75 15 16.75H17C17.4142 16.75 17.75 16.4142 17.75 16C17.75 15.5858 17.4142 15.25 17 15.25H15Z" fill="#1D2452"/>
</g>
</g>
</svg>
